<?xml version="1.0" standalone="no"?>
<!DOCTYPE svg PUBLIC "-//W3C//DTD SVG 20010904//EN"
 "http://www.w3.org/TR/2001/REC-SVG-20010904/DTD/svg10.dtd">
<svg version="1.0" xmlns="http://www.w3.org/2000/svg"
 width="631.000000pt" height="631.000000pt" viewBox="0 0 631.000000 631.000000"
 preserveAspectRatio="xMidYMid meet">
<metadata>
Created by potrace 1.14, written by Peter Selinger 2001-2017
</metadata>
<g transform="translate(0.000000,631.000000) scale(0.100000,-0.100000)"
fill="#000000" stroke="none">
<path d="M2881 5868 c-179 -315 -195 -347 -151 -300 28 29 46 45 42 35 -20
-50 -54 -101 -84 -130 -57 -55 -90 -63 -260 -62 -95 0 -145 4 -133 9 11 5 52
9 90 10 39 1 90 5 115 9 27 5 -94 9 -304 10 -326 1 -348 0 -335 -16 8 -9 132
-158 277 -331 l262 -314 0 -411 0 -412 25 30 c27 34 33 20 14 -35 -9 -25 -24
-38 -63 -56 -51 -24 -54 -24 -393 -24 -222 0 -343 4 -343 10 0 6 99 10 278 10
195 1 295 5 337 14 54 13 23 14 -327 15 l-387 1 -310 260 c-170 143 -313 260
-316 260 -3 0 -5 -10 -5 -21 0 -17 -3 -19 -14 -10 -23 19 -27 -34 -25 -389 l1
-335 -38 -28 c-48 -35 -55 -43 -26 -28 13 7 27 10 30 6 13 -13 -65 -70 -204
-149 -165 -94 -247 -150 -292 -200 -34 -37 -67 -45 -67 -15 0 14 62 74 130
127 33 25 -19 -2 -199 -104 -106 -61 -108 -62 -85 -77 13 -8 155 -89 314 -180
328 -186 427 -245 437 -261 4 -6 5 -185 1 -398 -3 -214 -3 -388 2 -388 4 0
156 124 336 275 l328 275 431 0 430 0 0 -428 0 -429 -276 -329 -276 -329 391
-3 390 -2 28 -37 c15 -20 118 -195 229 -390 l202 -354 35 58 c19 32 96 168
172 303 76 135 163 284 192 332 l54 88 394 2 394 3 -274 328 -275 327 0 430 0
430 429 0 429 0 328 -276 329 -275 5 395 c3 217 7 397 10 399 11 11 267 160
508 296 138 79 252 147 252 151 0 4 -114 72 -252 151 -139 78 -313 178 -385
221 l-133 79 -2 394 -3 395 -270 -226 c-265 -222 -370 -315 -275 -244 25 19
70 55 101 82 64 54 156 118 171 118 5 0 8 -5 6 -10 -7 -22 -305 -261 -358
-287 l-55 -28 -335 -3 c-217 -2 -331 0 -325 7 6 5 134 11 305 14 170 2 308 9
325 15 22 7 -80 11 -387 11 l-418 1 0 430 0 430 275 327 c151 181 275 330 275
333 0 3 -174 4 -387 2 -214 -2 -393 1 -399 5 -16 11 -97 146 -283 476 -90 158
-167 287 -171 287 -5 0 -98 -159 -209 -352z m207 204 c2 -23 -2 -34 -13 -38
-26 -11 -37 9 -24 45 14 39 33 36 37 -7z m141 -335 c73 -133 159 -281 190
-329 l56 -88 288 0 289 0 -31 -37 c-17 -21 -112 -132 -211 -248 l-179 -210 -1
-517 0 -518 524 0 524 0 241 205 c132 113 243 205 246 205 3 0 5 -129 5 -288
l0 -287 98 -61 c53 -33 202 -119 330 -189 127 -71 232 -131 232 -134 -1 -3
-100 -60 -221 -126 -122 -66 -269 -150 -328 -186 l-106 -67 -2 -248 c-2 -239
-2 -248 15 -219 16 29 17 29 20 7 4 -27 -16 -82 -29 -82 -5 0 -9 -8 -9 -19 0
-16 -5 -18 -45 -10 -45 8 -95 34 -95 49 0 5 11 10 23 12 20 2 -12 33 -180 176
l-203 172 -517 -2 -518 -3 -3 -518 -2 -517 196 -230 c108 -127 198 -230 199
-230 2 0 1 18 -2 40 -7 48 1 51 27 7 24 -39 26 -67 4 -67 -8 0 -12 -4 -9 -10
4 -7 -93 -10 -283 -10 l-290 0 -53 -82 c-29 -46 -114 -193 -188 -327 -91 -162
-142 -245 -154 -247 -21 -3 -77 42 -77 62 0 12 4 12 21 4 11 -7 22 -10 24 -8
5 4 -223 412 -286 513 l-54 85 -287 0 c-159 0 -288 3 -288 6 0 3 92 113 205
245 l205 240 0 525 0 524 -517 0 -518 -1 -245 -208 -245 -209 -3 287 -2 286
-94 61 c-52 33 -200 118 -330 189 -130 72 -236 133 -236 136 0 4 108 66 239
139 132 72 280 158 330 190 l91 59 2 287 3 286 242 -206 242 -206 521 0 520 0
0 521 0 520 -192 226 c-106 124 -199 234 -207 244 -13 19 -6 19 273 19 l286 0
55 84 c30 46 116 195 191 330 75 135 139 246 143 246 3 0 66 -109 140 -243z
m811 -329 c47 -15 61 -41 24 -46 -12 -2 -56 6 -99 17 -43 12 -127 24 -186 27
-66 4 -106 11 -102 17 9 14 309 2 363 -15z m-1938 -16 c6 -6 7 -15 4 -21 -12
-19 -54 -12 -83 15 l-28 25 48 -4 c27 -3 53 -9 59 -15z m-1135 -1059 c24 -41
26 -73 4 -73 -14 0 -38 49 -50 99 -8 36 -7 40 6 30 8 -7 26 -32 40 -56z m4233
-39 c-13 -33 -26 -44 -57 -44 -31 0 -29 8 14 52 40 41 60 38 43 -8z m620 -969
c24 -25 31 -38 23 -46 -11 -11 -52 25 -74 64 -17 31 15 20 51 -18z m-185 -235
c-4 -6 -65 -45 -137 -87 -71 -42 -154 -98 -184 -126 -61 -55 -87 -57 -33 -1
40 41 86 71 240 159 126 71 123 69 114 55z m-3987 -450 c-75 -9 -124 -23 -182
-52 -47 -24 -38 -7 16 33 39 28 46 29 137 28 l96 -2 -67 -7z m394 3 c-51 -2
-132 -2 -180 0 -48 1 -6 3 93 3 99 0 138 -2 87 -3z m359 -10 c21 -21 2 -26
-53 -13 -29 7 -88 16 -133 21 -73 6 -69 7 47 5 86 -1 131 -5 139 -13z m1912
10 c-51 -2 -135 -2 -185 0 -51 1 -10 3 92 3 102 0 143 -2 93 -3z m194 0 c-20
-2 -52 -2 -70 0 -17 2 0 4 38 4 39 0 53 -2 32 -4z m-712 -13 c-11 -19 -67 -42
-76 -33 -20 20 2 43 43 43 24 0 37 -4 33 -10z m-2570 -226 c-39 -32 -70 -50
-60 -35 7 12 75 60 85 60 3 0 -8 -11 -25 -25z m-251 -58 c20 -42 20 -56 1 -56
-17 0 -35 39 -35 76 0 32 13 24 34 -20z m1320 -848 c-84 -103 -121 -159 -160
-242 -38 -83 -58 -106 -77 -87 -26 26 104 220 251 373 58 61 50 34 -14 -44z
m1611 -368 c-3 -5 -23 -10 -43 -9 -30 0 -33 2 -17 9 28 12 67 12 60 0z m-1347
-17 c-10 -2 -28 -2 -40 0 -13 2 -5 4 17 4 22 1 32 -1 23 -4z m993 -23 c-76
-35 -85 -37 -71 -9 14 26 44 38 95 38 l40 0 -64 -29z"/>
<path d="M3067 5832 c-51 -53 -61 -116 -22 -134 l25 -11 -29 -18 c-17 -10 -35
-28 -42 -40 -16 -32 -15 -89 4 -124 23 -45 86 -105 103 -98 7 3 30 28 51 55
29 40 38 62 41 104 4 52 3 55 -32 87 -36 33 -36 34 -16 52 25 23 25 45 0 95
-29 57 -51 66 -83 32z m50 -235 c13 -28 6 -72 -14 -89 -11 -9 -16 -9 -23 2 -5
8 -6 18 -4 22 3 4 0 8 -5 8 -14 0 -14 36 -1 61 14 26 34 24 47 -4z"/>
<path d="M2873 5430 c-25 -10 -53 -58 -53 -91 l0 -22 24 23 c14 12 37 23 51
23 32 0 65 -29 65 -58 0 -38 -21 -85 -38 -85 -14 0 -14 2 -3 9 18 11 7 16 -63
31 -60 12 -155 7 -201 -10 -24 -9 -116 -76 -125 -91 -3 -4 -29 -9 -57 -10 -58
-3 -86 13 -81 45 3 19 9 21 56 18 51 -3 53 -3 43 17 -30 54 -96 67 -138 25
-32 -32 -26 -76 17 -119 25 -25 38 -30 78 -30 26 0 65 4 86 9 28 6 37 6 32 -2
-4 -6 -7 -31 -8 -55 -1 -54 40 -134 90 -178 l34 -30 -24 -47 c-19 -40 -23 -63
-23 -147 0 -90 3 -106 28 -157 16 -32 51 -83 79 -113 l51 -56 -26 -27 c-47
-49 -58 -105 -33 -174 l14 -38 -35 0 c-73 0 -106 -78 -61 -143 31 -46 48 -57
88 -57 65 0 95 63 45 96 -29 19 -55 12 -62 -16 -6 -24 -16 -25 -37 -4 -20 20
-21 58 -1 74 32 27 151 -5 239 -64 36 -24 72 -46 80 -49 9 -4 16 -12 16 -20 0
-9 -23 -17 -71 -24 -152 -24 -320 -136 -420 -280 -45 -65 -88 -163 -95 -215
-4 -27 -10 -48 -15 -48 -14 0 -69 79 -96 138 -32 69 -42 162 -19 181 12 10 25
11 49 5 37 -11 48 -39 18 -47 -27 -7 -36 -32 -23 -61 15 -33 47 -38 77 -14 22
17 26 27 23 61 -3 35 -9 46 -46 74 -53 40 -93 43 -127 8 -18 -17 -25 -35 -25
-61 0 -30 -3 -35 -17 -29 -76 31 -124 26 -193 -19 l-35 -23 -50 44 c-28 24
-79 58 -115 76 -58 29 -73 32 -155 32 -73 0 -100 -5 -143 -24 l-53 -24 -42 40
c-64 62 -120 87 -183 80 l-52 -5 9 31 c5 18 9 55 9 83 0 63 -25 99 -78 113
-43 12 -77 -4 -93 -47 -14 -37 -4 -67 32 -92 l30 -22 -2 46 c-3 58 10 74 47
57 25 -11 26 -15 22 -62 -3 -27 -2 -69 3 -92 6 -36 4 -45 -13 -62 l-21 -20 8
20 c5 11 10 38 13 60 l4 40 -36 -50 c-69 -96 -79 -127 -74 -229 3 -59 10 -102
21 -121 16 -30 16 -30 17 -5 1 23 2 23 11 6 13 -22 1 -32 -50 -42 -47 -9 -84
6 -95 39 -8 22 -6 33 13 58 26 35 24 43 -12 34 -36 -9 -77 -50 -77 -76 0 -40
31 -87 68 -105 32 -15 41 -15 104 -2 57 12 70 12 79 1 6 -7 38 -31 70 -52 l59
-39 -43 -25 c-23 -14 -54 -37 -69 -51 -26 -25 -27 -25 -94 -11 -57 12 -72 12
-100 0 -38 -16 -74 -67 -74 -107 0 -32 50 -78 86 -78 l25 0 -22 29 c-43 58 5
122 78 104 21 -5 37 -14 36 -19 -1 -5 -10 -29 -19 -54 -12 -33 -15 -69 -12
-132 4 -76 7 -91 34 -127 16 -22 39 -55 51 -72 26 -35 40 -115 26 -138 -13
-20 -53 -27 -64 -10 -4 7 -3 21 2 31 6 11 9 31 7 46 l-3 27 -38 -37 c-44 -43
-46 -66 -11 -107 28 -34 51 -38 92 -17 55 29 65 49 59 123 -2 38 -8 76 -12 85
-6 15 -3 16 26 8 60 -17 170 27 222 90 l26 30 48 -22 c39 -18 66 -22 143 -22
121 0 187 24 268 98 l57 53 39 -28 c51 -38 97 -46 158 -26 l48 15 0 -34 c0
-74 78 -107 143 -62 46 31 57 48 57 88 0 65 -62 94 -94 45 -21 -33 -20 -51 5
-69 l21 -14 -21 -21 c-27 -27 -47 -27 -66 3 -15 22 -15 30 0 87 9 35 25 79 35
98 29 58 81 124 89 115 4 -5 15 -38 25 -72 57 -215 262 -416 485 -478 34 -10
61 -20 61 -23 0 -17 -185 -121 -217 -121 -6 0 -9 -9 -6 -20 5 -20 5 -20 -28
-4 -19 10 -41 20 -49 24 -21 10 -24 54 -5 70 13 11 18 10 33 -4 24 -21 55 -20
75 2 37 41 7 92 -54 92 -53 0 -109 -66 -109 -129 0 -38 40 -71 86 -71 39 0 39
1 19 -47 -24 -56 -19 -95 18 -150 l33 -50 -44 -49 c-106 -115 -140 -276 -88
-405 l26 -64 -29 -25 c-66 -58 -110 -161 -93 -216 9 -32 9 -35 -6 -29 -27 11
-105 21 -130 17 -13 -2 -27 -14 -32 -28 -5 -13 -15 -23 -21 -22 -14 3 -39 -38
-39 -64 0 -22 56 -68 83 -68 23 0 52 21 77 54 14 17 12 18 -40 15 -49 -4 -55
-2 -58 17 -2 11 6 28 17 38 26 24 96 15 143 -19 96 -69 118 -79 204 -83 61 -3
97 0 135 12 28 10 53 15 56 12 3 -2 7 -22 10 -44 5 -34 2 -42 -23 -61 -18 -14
-36 -20 -49 -16 -11 3 -26 7 -33 9 -8 1 -18 9 -23 17 -6 10 -9 6 -9 -14 0 -34
48 -87 80 -87 26 0 57 15 88 43 25 23 30 84 12 149 -10 35 -8 39 40 103 27 36
50 71 50 78 0 7 10 -4 21 -23 12 -19 36 -53 54 -76 l33 -40 -14 -54 c-17 -65
-17 -82 -3 -113 13 -28 76 -67 109 -67 29 0 80 52 80 83 l0 25 -39 -21 c-33
-18 -43 -19 -65 -9 -30 13 -41 48 -32 97 l7 35 32 -17 c24 -13 57 -18 137 -18
113 0 118 2 212 69 47 34 119 53 151 40 23 -8 34 -54 16 -65 -7 -4 -34 -5 -58
-2 l-45 6 23 -31 c38 -53 100 -53 135 0 12 19 13 32 6 59 -22 79 -80 97 -201
65 -27 -8 -27 -7 -22 38 7 62 -19 128 -73 186 l-43 46 24 70 c29 80 31 137 9
219 -18 72 -51 131 -104 186 l-39 41 25 37 c43 66 47 104 20 189 -7 20 -4 22
33 22 31 0 44 6 60 26 25 32 26 55 5 97 -29 56 -54 77 -95 77 -29 0 -42 -6
-58 -26 -26 -33 -26 -39 -1 -64 24 -24 68 -26 76 -5 9 21 30 18 48 -7 18 -26
6 -55 -27 -63 -34 -9 -167 37 -231 80 -31 20 -55 39 -53 41 2 2 39 13 81 24
131 33 200 73 301 175 101 100 143 173 170 291 9 38 20 73 25 77 9 10 48 -39
75 -93 23 -45 45 -126 45 -167 0 -43 -31 -61 -66 -38 -29 19 -30 26 -4 43 24
15 26 40 4 70 -35 51 -113 -3 -99 -68 9 -39 82 -90 131 -90 41 0 74 39 74 86
l0 33 46 -16 c58 -20 107 -12 159 25 l41 29 52 -48 c28 -26 78 -60 109 -75 52
-25 69 -28 158 -29 82 0 109 4 147 22 l46 21 45 -43 c60 -57 146 -90 200 -77
34 9 38 8 32 -6 -4 -10 -12 -41 -18 -70 -9 -44 -9 -58 4 -80 18 -33 75 -72
104 -72 26 0 61 36 70 72 6 23 1 34 -29 64 -43 43 -53 40 -35 -10 14 -39 2
-66 -30 -66 -65 0 -53 107 23 206 57 75 71 214 31 311 -15 36 -14 38 33 48 23
5 40 2 57 -9 35 -23 40 -51 16 -92 -12 -19 -21 -37 -21 -39 0 -9 64 16 81 31
24 22 25 91 3 123 -30 42 -71 52 -149 36 l-68 -15 -33 29 c-17 16 -46 37 -63
47 -38 22 -39 29 -3 48 15 8 44 30 66 49 l39 33 67 -14 c57 -13 71 -13 95 -1
66 32 92 123 46 160 -25 21 -68 35 -78 26 -3 -3 4 -18 16 -33 26 -33 26 -45 0
-78 -15 -19 -30 -26 -54 -26 -58 0 -65 6 -50 44 21 51 29 155 16 216 -8 35
-25 72 -51 105 -68 88 -81 161 -34 192 25 16 27 16 40 -2 10 -13 11 -22 4 -29
-12 -12 -13 -66 -1 -66 12 0 71 68 71 81 0 20 -31 69 -50 79 -14 8 -29 7 -55
-4 -40 -17 -46 -26 -12 -20 20 4 20 4 2 -4 -11 -5 -25 -7 -32 -5 -23 9 -46
-60 -39 -111 4 -26 11 -44 17 -41 5 4 9 -5 9 -18 0 -23 -3 -23 -53 -19 -63 5
-134 -26 -192 -84 l-36 -36 -52 23 c-42 19 -69 24 -142 24 -80 0 -97 -4 -155
-31 -36 -17 -88 -52 -116 -77 l-51 -46 -34 25 c-52 38 -96 47 -149 31 -25 -8
-44 -19 -42 -25 3 -18 -29 -14 -43 4 -10 15 -14 10 -24 -31 -7 -26 -21 -66
-33 -89 -30 -60 -90 -139 -98 -129 -4 4 -12 34 -19 66 -27 124 -123 269 -234
352 -65 49 -147 95 -169 95 -7 0 23 -19 67 -43 163 -85 285 -245 320 -417 18
-89 18 -93 5 -85 -5 3 -10 16 -10 28 0 43 -57 183 -97 243 -89 130 -237 234
-383 268 -82 20 -227 20 -307 1 -178 -42 -339 -172 -424 -340 -16 -33 -27 -49
-23 -35 12 48 66 138 115 193 64 72 141 122 269 174 128 53 222 63 344 38 42
-9 84 -19 93 -22 10 -4 14 -2 10 4 -4 6 -40 16 -82 24 l-75 13 27 24 c115 97
282 159 321 120 18 -18 14 -56 -7 -67 -14 -8 -23 -6 -36 9 -25 27 -38 25 -33
-5 6 -29 0 -32 -18 -7 -13 16 -15 16 -28 -1 -28 -36 6 -77 64 -77 42 0 61 12
89 60 42 71 15 134 -58 134 -37 1 -41 3 -36 21 29 94 24 141 -21 195 l-26 31
45 48 c51 55 84 114 103 186 20 73 17 127 -11 211 l-25 75 28 24 c16 13 43 52
61 86 28 52 33 69 29 113 l-4 52 50 -13 c73 -19 101 -16 135 13 35 29 55 87
40 115 -24 45 -83 51 -128 13 -44 -37 -39 -46 21 -42 44 2 53 0 56 -15 6 -29
-17 -47 -60 -47 -50 0 -93 18 -146 63 -29 25 -60 39 -99 47 -67 14 -172 6
-216 -16 -36 -19 -47 -8 -47 47 0 61 48 88 104 58 20 -10 36 -14 36 -9 0 29
-32 81 -54 90 -53 20 -131 -26 -141 -84 -3 -17 1 -58 9 -91 l15 -60 -29 -30
c-15 -16 -39 -47 -53 -68 -26 -38 -26 -38 -38 -15 -6 13 -29 44 -51 70 -37 45
-38 50 -29 85 6 21 11 60 11 86 0 40 -5 54 -29 78 -16 16 -36 29 -44 29 -9 0
-21 2 -29 4 -7 3 -23 1 -35 -4z m892 -170 c3 -5 1 -10 -4 -10 -6 0 -11 5 -11
10 0 6 2 10 4 10 3 0 8 -4 11 -10z m-537 -45 c-3 -3 -9 2 -12 12 -6 14 -5 15
5 6 7 -7 10 -15 7 -18z m-337 -15 l40 -21 -21 -29 c-12 -17 -27 -30 -33 -30
-7 0 -43 -38 -81 -85 -39 -47 -77 -85 -86 -85 -8 0 -25 7 -36 15 -12 8 -25 11
-30 7 -5 -4 -6 -3 -2 2 4 4 1 15 -7 23 -13 13 -22 63 -11 63 2 0 20 -7 39 -15
20 -8 38 -15 39 -15 2 0 2 20 0 44 -10 115 86 178 189 126z m540 3 c41 -24 63
-76 55 -129 -3 -24 -3 -44 0 -44 2 0 21 7 41 15 19 8 37 15 39 15 10 0 3 -48
-8 -62 -20 -25 -74 -52 -91 -45 -9 3 -48 44 -88 91 -40 47 -77 82 -82 79 -6
-3 -7 -1 -3 5 4 7 3 12 -3 12 -6 0 -15 9 -21 20 -10 18 -6 23 32 40 53 24 91
25 129 3z m-801 -33 c-32 -24 -42 -14 -11 11 13 11 27 17 30 14 3 -4 -5 -15
-19 -25z m426 -138 c16 -40 16 -45 -1 -83 -10 -22 -18 -59 -18 -82 0 -47 36
-127 57 -127 25 0 57 83 54 139 -2 28 -7 51 -12 51 -4 0 -6 7 -2 15 3 8 1 15
-4 15 -24 0 -8 61 31 119 22 33 44 63 49 66 5 3 18 -12 30 -34 11 -22 56 -82
100 -133 88 -102 97 -123 50 -113 -44 10 -120 -36 -192 -115 -78 -86 -92 -112
-98 -195 l-1 -20 -9 20 c-4 11 -6 32 -3 46 4 20 -6 39 -45 85 -55 67 -134 140
-172 159 -37 18 -83 28 -75 16 3 -7 0 -8 -9 -5 -27 10 -19 26 55 109 39 44 85
104 102 134 l31 54 33 -39 c18 -21 40 -58 49 -82z m-376 -97 c13 -14 21 -25
18 -25 -2 0 -15 11 -28 25 -13 14 -21 25 -18 25 2 0 15 -11 28 -25z m407 -12
c-3 -10 -5 -4 -5 12 0 17 2 24 5 18 2 -7 2 -21 0 -30z m361 -31 c6 -18 -15
-14 -22 4 -4 10 -1 14 6 12 6 -2 14 -10 16 -16z m-738 -2 c0 -5 -4 -10 -9 -10
-6 0 -13 5 -16 10 -3 6 1 10 9 10 9 0 16 -4 16 -10z m387 -47 c-3 -10 -5 -4
-5 12 0 17 2 24 5 18 2 -7 2 -21 0 -30z m-231 -105 c52 -34 122 -112 140 -155
8 -18 14 -51 14 -73 0 -40 0 -40 -37 -40 -21 0 -46 7 -56 14 -17 13 -17 17 -3
51 9 21 16 39 16 40 0 4 -59 -15 -80 -25 -8 -4 -18 -22 -23 -41 -5 -19 -13
-38 -18 -43 -12 -13 -12 -63 1 -71 6 -3 10 -10 10 -15 0 -16 -45 10 -60 33
-12 20 -12 21 3 8 10 -7 17 -9 17 -4 0 11 -34 45 -41 41 -2 -2 -3 -1 -2 0 1 2
-7 12 -18 23 -34 34 -25 47 31 41 28 -2 50 -2 50 1 0 13 -94 112 -103 109 -5
-2 -7 4 -4 13 4 8 2 15 -3 15 -17 0 -11 73 10 118 l20 43 47 -27 c27 -15 67
-40 89 -56z m616 36 c27 -61 20 -100 -29 -153 -21 -24 -47 -57 -57 -73 l-20
-31 52 5 c29 3 52 3 52 1 0 -13 -36 -70 -51 -81 -11 -7 -19 -19 -19 -27 0 -12
-40 -49 -46 -42 -1 1 1 21 5 44 5 23 6 45 3 48 -3 3 -7 11 -8 18 -6 33 -25 67
-45 77 -27 15 -69 20 -69 9 0 -5 4 -9 8 -9 4 0 9 -18 10 -39 3 -38 1 -40 -30
-46 -82 -14 -92 1 -62 89 22 64 108 153 204 211 41 24 76 45 78 45 2 0 12 -21
24 -46z m-182 -269 c12 -31 -5 -82 -31 -96 -25 -13 -24 3 2 27 16 14 20 28 17
56 -4 44 -1 48 12 13z m-433 -52 c-3 -10 -5 -4 -5 12 0 17 2 24 5 18 2 -7 2
-21 0 -30z m73 2 c14 -19 14 -19 -2 -6 -10 7 -18 18 -18 24 0 6 1 8 3 6 1 -2
9 -13 17 -24z m100 -19 c0 -3 -4 -8 -10 -11 -5 -3 -10 -1 -10 4 0 6 5 11 10
11 6 0 10 -2 10 -4z m102 -103 c12 -14 57 -42 98 -62 89 -43 120 -81 120 -147
0 -33 -4 -44 -15 -44 -28 0 -110 -48 -172 -99 -34 -28 -69 -51 -80 -51 -10 0
-43 20 -73 45 -51 43 -164 105 -189 105 -25 0 -1 102 32 139 12 13 54 38 92
56 76 34 122 79 132 127 l6 30 13 -37 c7 -20 23 -48 36 -62z m23 -592 l16 -49
53 -4 c51 -4 134 -47 108 -56 -6 -2 -25 7 -42 19 -17 13 -52 26 -78 29 -49 5
-61 18 -77 83 -12 45 2 30 20 -22z m202 4 c160 -79 273 -236 307 -424 l6 -35
-22 21 c-13 11 -33 24 -44 27 -30 9 -49 34 -62 82 -17 59 -47 94 -81 94 -30 0
-92 -44 -151 -106 -31 -32 -85 -65 -107 -64 -4 0 -16 7 -26 14 -17 13 -17 16
-2 53 27 63 84 138 131 171 25 18 44 40 44 50 0 30 -51 70 -107 83 -49 12 -73
35 -73 71 0 22 112 0 187 -37z m-377 15 c0 -15 -14 -23 -69 -40 -68 -20 -101
-47 -101 -84 0 -8 23 -37 51 -63 67 -63 108 -123 130 -192 10 -31 18 -50 18
-42 1 8 4 12 7 8 3 -3 3 -10 -1 -16 -4 -7 -19 -4 -45 9 -22 11 -50 20 -63 20
-33 0 -104 48 -159 108 -26 29 -52 52 -58 52 -29 0 -70 -77 -70 -135 0 -15
-12 -24 -45 -36 -25 -9 -48 -13 -51 -8 -10 16 7 72 43 141 63 121 196 234 327
280 67 23 86 23 86 -2z m145 -54 c11 -37 22 -55 35 -59 11 -3 20 -12 20 -20 0
-21 -79 -119 -90 -112 -6 4 -10 1 -10 -5 0 -24 -45 -4 -61 27 -20 39 -40 65
-47 59 -2 -3 5 -18 17 -34 30 -42 81 -153 81 -177 1 -18 2 -18 14 4 15 27 21
21 30 -33 6 -29 10 -36 17 -25 7 11 9 9 9 -9 0 -21 3 -23 33 -18 25 5 27 4 11
-3 -12 -5 -42 -9 -67 -9 -26 0 -51 -3 -56 -6 -5 -4 -13 -1 -16 5 -4 5 -13 8
-20 5 -23 -8 -121 20 -171 49 -27 16 -72 50 -100 77 -28 26 -56 48 -62 48 -7
0 -21 -9 -32 -20 -25 -25 -25 -17 -3 21 10 16 23 29 30 29 6 0 35 -25 64 -55
66 -70 129 -110 204 -129 69 -18 78 -12 71 46 -6 54 -41 121 -95 181 -73 82
-80 98 -11 28 66 -68 102 -133 121 -218 11 -49 14 -53 41 -53 23 0 28 4 27 23
-1 16 -2 18 -6 5 -2 -10 -13 -18 -23 -18 -13 0 -20 10 -25 39 -10 61 -57 150
-113 216 -29 33 -52 63 -52 67 0 8 42 16 100 20 32 3 36 7 49 50 13 43 24 54
58 57 7 0 19 -23 28 -53z m1828 33 c-7 -7 -21 -7 -44 -1 l-34 10 45 1 c31 1
41 -2 33 -10z m-3625 -35 c42 -17 104 -73 96 -86 -3 -4 -15 -8 -28 -8 -13 0
-63 -33 -122 -80 -54 -43 -104 -79 -110 -80 -6 0 -17 7 -24 15 -7 8 -16 13
-20 10 -5 -3 -11 8 -15 24 -16 75 70 151 156 137 l38 -6 -14 35 c-26 60 -20
66 43 39z m3572 7 c0 -5 -7 -25 -16 -46 l-15 -37 39 7 c52 8 118 -18 137 -56
40 -77 -9 -144 -78 -107 -12 6 -55 38 -96 71 -41 33 -81 61 -90 62 -39 3 -43
16 -14 47 40 43 133 84 133 59z m-1935 -21 c-11 -5 -30 -9 -42 -9 -13 -1 -32
-10 -44 -22 -11 -11 -30 -19 -42 -17 -20 3 -18 6 13 23 33 17 86 32 120 33 9
0 7 -3 -5 -8z m-1515 -51 c0 -6 -4 -7 -10 -4 -5 3 -10 11 -10 16 0 6 5 7 10 4
6 -3 10 -11 10 -16z m2937 15 c-3 -3 -12 -4 -19 -1 -8 3 -5 6 6 6 11 1 17 -2
13 -5z m-2699 -19 c42 -18 82 -53 82 -71 0 -7 9 -18 20 -24 18 -10 20 -8 20
23 0 18 -5 38 -11 44 -6 6 -7 13 -1 17 5 3 35 -10 67 -29 31 -19 63 -35 69
-35 6 -1 24 -12 41 -25 l29 -24 -44 -20 c-25 -11 -61 -20 -80 -20 -36 1 -34 3
13 13 33 8 36 33 5 45 -28 10 -63 -1 -63 -20 0 -8 -8 -13 -17 -11 -12 2 -25
-13 -44 -49 -22 -45 -23 -51 -7 -44 64 28 123 8 123 -42 0 -21 -4 -23 -52 -22
-29 1 -63 4 -75 7 -37 11 -122 83 -160 137 -20 28 -50 62 -66 78 -16 15 -27
33 -24 40 4 14 82 46 115 46 12 1 39 -6 60 -14z m2922 -3 c25 -10 45 -23 45
-30 0 -13 -98 -126 -174 -199 -47 -46 -102 -67 -158 -61 -36 4 -40 0 -20 -22
10 -12 9 -12 -5 -1 -24 18 -23 64 2 86 20 18 63 18 105 0 19 -9 20 -8 2 18 -9
14 -17 33 -17 40 0 8 -16 27 -35 41 -32 25 -39 26 -85 18 -27 -5 -50 -6 -50
-2 0 13 68 69 110 90 l39 20 -6 -50 c-5 -43 -4 -50 10 -45 8 4 21 19 27 35 8
20 29 38 63 55 59 29 85 30 147 7z m70 8 c13 -8 13 -10 -2 -10 -9 0 -20 5 -23
10 -8 13 5 13 25 0z m-1446 -39 c3 -5 -1 -14 -9 -21 -8 -7 -15 -17 -15 -23 0
-6 17 5 37 24 l37 34 -39 -45 c-22 -25 -51 -58 -64 -75 -13 -17 -16 -19 -7 -5
32 50 37 60 28 60 -5 0 -20 -16 -33 -35 -40 -58 -53 -49 -19 12 40 71 70 97
84 74z m-1743 -97 c52 -110 204 -252 274 -255 16 0 14 -4 -10 -14 -16 -8 -40
-11 -51 -9 -36 9 -164 -111 -208 -196 -21 -39 -43 -70 -49 -70 -17 0 -51 24
-111 78 -57 49 -102 76 -120 69 -7 -3 -19 -1 -27 4 -11 7 -7 15 21 39 19 16
55 39 79 51 42 21 45 21 90 5 77 -27 153 -18 208 26 18 14 -17 61 -56 78 -29
11 -101 10 -182 -5 -25 -5 -46 -2 -67 9 -36 19 -56 21 -46 4 4 -7 3 -8 -5 -4
-6 4 -9 11 -6 16 3 5 -5 10 -17 12 -37 5 -30 22 25 55 29 18 88 64 132 102 44
39 83 71 88 71 4 0 21 -30 38 -66z m3327 -14 c51 -44 110 -89 132 -100 47 -24
51 -37 13 -46 -16 -3 -50 -15 -78 -26 -44 -18 -55 -19 -103 -8 -73 16 -113 15
-149 -3 -40 -21 -67 -61 -50 -75 54 -43 139 -54 204 -27 47 20 80 13 143 -31
28 -19 50 -31 50 -28 0 4 7 1 15 -6 22 -18 4 -33 -36 -32 -43 1 -71 -15 -158
-92 -67 -60 -76 -65 -91 -51 -9 8 -20 12 -24 8 -4 -4 -4 1 0 11 5 13 4 17 -4
12 -7 -4 -10 -2 -7 6 13 34 -155 222 -192 217 -10 -2 -36 3 -58 11 l-40 13 34
9 c82 22 200 137 257 249 19 38 38 69 42 69 4 0 49 -36 100 -80z m-2729 66
c-2 -2 -15 -9 -29 -15 -24 -11 -24 -11 -6 3 16 13 49 24 35 12z m196 -88 c9
-23 33 -66 53 -96 50 -72 71 -104 78 -120 4 -7 -10 -29 -33 -52 -21 -22 -50
-58 -63 -80 -65 -107 -62 -105 -112 -108 -52 -3 -101 17 -118 48 -6 11 -15 18
-20 15 -6 -4 -7 1 -3 11 5 13 3 15 -7 9 -10 -6 -12 -4 -7 8 3 10 2 17 -4 17
-6 0 -7 5 -4 10 3 6 3 10 -2 10 -4 0 -16 14 -25 31 -11 19 -36 38 -70 53 l-52
23 36 7 c47 9 100 67 122 133 27 81 82 122 162 123 52 0 52 0 69 -42z m1756
20 c23 -16 45 -46 69 -95 43 -88 82 -131 129 -140 l36 -6 -29 -12 c-19 -8 -24
-14 -15 -17 11 -4 7 -15 -16 -48 -24 -35 -31 -40 -33 -24 -7 36 -19 35 -48 -3
-67 -86 -108 -122 -156 -135 -42 -10 -49 -10 -67 6 -15 13 -20 14 -25 4 -3 -7
-3 -2 0 11 4 16 2 21 -5 17 -6 -4 -9 -2 -6 6 3 8 -22 56 -55 108 -33 51 -60
97 -60 102 0 5 22 37 48 72 27 35 59 89 72 120 l24 56 51 0 c37 0 62 -6 86
-22z m-537 -32 c10 -21 21 -58 24 -82 4 -41 7 -45 41 -54 20 -5 51 -19 69 -30
40 -25 38 -25 47 3 7 21 7 21 12 2 3 -12 -3 -26 -18 -38 -22 -18 -23 -18 -43
7 -12 14 -42 34 -67 45 -44 18 -46 21 -53 70 -4 30 -16 61 -29 77 l-22 26 -50
-43 -50 -42 50 51 c28 28 55 50 60 49 6 -2 18 -20 29 -41z m1726 1 c0 -16 -18
3 -23 25 -6 22 -5 22 8 4 8 -11 15 -24 15 -29z m-1740 -118 c0 -22 4 -39 9
-39 12 0 41 -29 41 -41 0 -5 -43 -9 -95 -9 -52 0 -95 4 -95 9 0 5 23 26 50 46
46 34 77 71 68 81 -3 2 -38 -30 -80 -71 -68 -68 -78 -75 -114 -75 -43 0 -100
29 -59 30 49 1 154 66 220 137 l29 32 13 -31 c7 -17 13 -48 13 -69z m-714 22
c56 -50 130 -88 191 -97 32 -5 43 -11 43 -24 0 -13 -12 -20 -47 -25 -27 -5
-54 -9 -60 -11 -31 -6 -19 16 14 27 l38 12 -50 14 c-42 13 -53 13 -75 1 -18
-10 -52 -14 -117 -12 -53 2 -93 -1 -93 -6 0 -5 44 -11 97 -12 l97 -3 -66 -52
c-36 -29 -69 -53 -72 -53 -3 0 -6 9 -6 19 0 31 -11 51 -28 51 -13 0 -12 -3 4
-14 10 -8 16 -18 12 -22 -5 -4 -16 0 -25 8 -10 8 -29 18 -43 21 -14 3 -34 13
-45 22 -20 16 -20 16 2 6 35 -17 38 -13 9 13 l-28 23 54 21 c29 11 61 23 71
26 13 4 17 16 17 51 0 26 5 55 10 66 13 23 19 20 96 -50z m-116 4 c0 -14 -4
-25 -9 -25 -4 0 -6 11 -3 25 2 14 6 25 8 25 2 0 4 -11 4 -25z m-214 -31 c-4
-14 -9 -24 -12 -21 -3 2 -2 17 2 31 3 15 9 25 11 22 3 -3 2 -17 -1 -32z m34
-51 c0 -11 4 -11 20 -3 22 12 23 10 14 -14 -11 -28 -41 -18 -53 15 -14 41 -14
44 4 29 8 -7 15 -19 15 -27z m100 27 c-8 -5 -22 -9 -30 -9 -10 0 -8 3 5 9 27
12 43 12 25 0z m-1152 -57 c-10 -2 -28 -2 -40 0 -13 2 -5 4 17 4 22 1 32 -1
23 -4z m2155 -34 c-5 -5 -26 -12 -48 -17 -39 -8 -40 -9 -43 -55 -2 -26 -5 -47
-6 -47 -2 0 -34 29 -71 65 l-68 65 91 0 c50 0 93 4 97 10 3 6 15 5 31 -2 13
-6 21 -15 17 -19z m-533 9 c0 -13 48 -9 53 5 3 7 6 5 6 -5 1 -19 -2 -20 -64
-23 -22 -1 -58 -5 -80 -8 -28 -5 -34 -4 -20 3 11 5 30 9 43 9 12 1 25 7 28 14
5 15 34 19 34 5z m90 -3 c0 -10 10 -15 28 -15 15 0 54 -12 87 -25 70 -29 65
-28 65 -15 0 6 -5 10 -11 10 -23 0 -129 43 -124 50 10 15 85 -8 159 -50 92
-53 118 -79 120 -120 1 -30 10 -39 19 -20 3 6 4 5 3 -2 -5 -26 -27 -16 -90 41
-77 69 -132 98 -216 114 -46 9 -60 16 -60 29 0 10 5 18 10 18 6 0 10 -7 10
-15z m500 0 c0 -6 -56 -35 -67 -35 -4 1 8 9 27 20 39 22 40 22 40 15z m-1198
-27 c-7 -7 -12 -8 -12 -2 0 14 12 26 19 19 2 -3 -1 -11 -7 -17z m1117 -11
c-39 -29 -59 -36 -59 -23 0 14 17 22 49 25 8 0 12 0 10 -2z m111 -6 c0 -5 -7
-14 -15 -21 -11 -9 -14 -22 -9 -43 10 -48 -48 -148 -141 -244 -66 -67 -96 -89
-168 -124 -52 -25 -108 -44 -136 -47 l-49 -4 11 40 c10 38 12 40 61 47 58 7
126 42 126 64 0 8 -29 45 -65 82 -64 66 -104 133 -105 174 0 11 -7 31 -16 44
-17 23 -17 23 17 16 68 -13 143 -59 212 -127 40 -40 76 -68 85 -66 24 5 85
128 71 144 -13 16 -3 34 19 34 9 1 33 9 52 20 39 22 50 24 50 11z m-1802 -17
c12 -8 22 -26 22 -38 0 -21 -6 -24 -55 -31 -30 -3 -55 -11 -55 -17 0 -6 -6 -6
-15 2 -24 20 -17 -4 14 -47 34 -47 98 -77 144 -67 23 5 28 3 22 -7 -16 -28
-38 -48 -46 -43 -5 2 -23 -2 -40 -11 -36 -19 -46 -13 -51 30 l-3 30 -21 -21
c-12 -12 -46 -33 -77 -48 -47 -24 -65 -27 -126 -24 -39 2 -71 6 -71 11 0 4 24
44 53 90 77 118 152 180 237 198 19 4 37 7 40 8 3 0 16 -6 28 -15z m884 -57
c-49 -49 -62 -57 -62 -41 0 20 42 66 89 97 47 31 35 6 -27 -56z m1681 41 c60
-30 116 -87 174 -175 29 -46 53 -86 53 -90 0 -10 -123 -15 -167 -8 -18 3 -45
18 -60 34 -16 16 -39 31 -51 35 -20 7 -22 4 -22 -27 0 -20 6 -37 13 -40 6 -2
9 -8 4 -12 -4 -5 -20 4 -36 19 -15 15 -39 28 -53 30 -31 3 -45 12 -59 38 -10
19 -9 20 20 13 43 -9 112 25 145 73 32 47 33 54 2 42 -13 -5 -27 -6 -30 -3
-11 11 -76 31 -76 24 0 -4 6 -13 13 -21 10 -12 9 -12 -5 -1 -25 19 -23 66 3
85 26 17 78 11 132 -16z m-1846 5 c17 -4 23 -15 28 -52 8 -60 44 -125 72 -129
15 -2 27 7 41 30 38 61 116 119 204 152 26 10 55 16 65 14 15 -3 15 -4 -1 -21
-10 -10 -15 -24 -12 -32 11 -29 -16 -74 -69 -114 -111 -84 -135 -151 -69 -192
20 -12 58 -24 84 -27 48 -4 48 -5 68 -58 17 -46 17 -52 3 -45 -9 5 -45 16 -80
25 -182 46 -339 194 -392 368 -24 78 -20 104 14 93 12 -3 32 -9 44 -12z m-107
-35 c0 -6 22 -56 49 -112 38 -77 64 -116 111 -164 101 -101 223 -164 348 -179
54 -6 54 -6 42 17 -9 17 -9 21 0 15 14 -9 7 21 -18 75 -13 27 -24 36 -47 38
-52 4 -69 10 -102 35 l-32 24 52 49 c37 35 41 38 15 9 -59 -63 -42 -93 60
-104 54 -6 55 -7 67 -46 6 -22 19 -55 29 -73 14 -27 20 -31 32 -21 8 6 14 8
14 4 0 -4 7 -1 16 6 15 12 16 11 9 -10 -7 -24 -7 -24 51 -16 33 4 67 7 77 7 9
-1 17 4 17 9 0 6 5 7 11 4 6 -4 40 8 77 26 101 50 227 179 281 289 23 47 39
74 35 60 -3 -14 -22 -56 -42 -95 -52 -104 -162 -210 -272 -263 -47 -22 -107
-45 -135 -51 -74 -15 -260 -12 -325 6 -183 50 -357 212 -413 383 -24 73 -29
102 -17 95 5 -3 10 -11 10 -17z m645 -48 c15 -39 46 -96 70 -128 46 -61 58
-92 38 -99 -7 -3 -13 2 -13 10 0 7 -10 22 -21 33 -12 10 -40 52 -64 91 -40 69
-55 81 -55 42 0 -10 -9 -21 -20 -24 -11 -3 -33 -26 -50 -50 -16 -24 -42 -53
-56 -64 -15 -12 -25 -24 -21 -27 11 -11 46 17 82 66 20 27 41 50 46 50 5 0 9
-43 9 -96 0 -61 4 -93 10 -89 6 3 10 44 10 91 0 46 2 84 5 84 6 0 99 -100 103
-111 2 -5 -9 -9 -24 -9 -33 0 -76 -44 -73 -74 3 -26 -9 -66 -21 -66 -4 0 -21
29 -36 65 l-28 65 -43 0 c-23 0 -52 5 -65 10 -23 11 -22 12 30 68 46 49 93
128 117 197 l7 20 8 -20 c8 -20 9 -20 9 1 1 18 9 34 17 34 1 0 14 -32 29 -70z
m-2010 42 c-3 -3 -11 0 -18 7 -9 10 -8 11 6 5 10 -3 15 -9 12 -12z m1632 -39
l-58 -58 -20 24 c-10 13 -19 37 -18 55 1 28 2 27 12 -13 7 -25 17 -46 22 -48
6 -2 33 19 60 47 27 27 52 50 55 50 2 0 -21 -26 -53 -57z m433 -33 c13 -25 52
-75 88 -112 36 -38 59 -68 51 -67 -37 1 -180 204 -178 254 1 16 2 15 8 -5 5
-14 18 -45 31 -70z m-1981 5 c22 -13 79 -58 127 -100 48 -41 92 -75 96 -75 5
0 4 -9 -2 -20 -6 -10 -16 -17 -23 -14 -8 3 -37 -11 -66 -31 -29 -20 -55 -34
-58 -32 -2 3 3 19 11 36 9 16 16 34 16 39 0 6 -31 17 -69 27 -38 9 -77 25 -87
36 -9 10 -21 16 -26 13 -4 -3 -8 -2 -7 3 1 4 -1 15 -5 25 -8 18 31 118 45 118
5 0 27 -11 48 -25z m3844 -10 c28 -59 23 -89 -22 -118 -22 -15 -52 -29 -68
-32 -46 -11 -83 -27 -83 -37 0 -5 7 -23 16 -39 19 -37 11 -49 -15 -25 -17 15
-89 56 -100 56 -2 0 2 -8 10 -18 8 -10 1 -5 -14 11 l-29 29 24 16 c13 9 50 39
83 67 75 65 157 124 171 125 6 0 18 -16 27 -35z m-2938 -15 c10 -11 16 -20 13
-20 -3 0 -13 9 -23 20 -10 11 -16 20 -13 20 3 0 13 -9 23 -20z m2001 -29 c-20
-22 -76 -51 -98 -51 -7 0 5 9 27 19 22 10 49 26 60 35 27 21 32 20 11 -3z
m-211 -1 c-3 -6 4 -10 17 -10 17 0 19 -3 9 -9 -11 -7 -10 -11 5 -20 15 -8 16
-10 3 -11 -25 0 -53 25 -46 44 4 9 9 16 12 16 4 0 3 -4 0 -10z m-2455 -80 c8
-5 12 -11 9 -14 -3 -3 -14 1 -25 9 -21 16 -8 20 16 5z m390 -45 c0 -2 -7 -5
-15 -9 -9 -3 -15 0 -15 9 0 9 6 12 15 9 8 -4 15 -7 15 -9z m1440 -35 c-8 -5
-22 -9 -30 -9 -10 0 -8 3 5 9 27 12 43 12 25 0z m-51 -16 c2 -2 -8 -4 -22 -4
-15 0 -36 -9 -47 -20 -21 -21 -27 -11 -10 20 8 15 17 18 43 13 17 -3 34 -7 36
-9z m1746 -14 c-3 -5 -15 -10 -26 -10 -10 0 -19 5 -19 10 0 6 12 10 26 10 14
0 23 -4 19 -10z m-1854 -97 c-12 -20 -14 -14 -5 12 4 9 9 14 11 11 3 -2 0 -13
-6 -23z m64 -179 c33 -25 86 -57 117 -72 57 -27 58 -27 58 -71 0 -37 -5 -48
-37 -78 -21 -19 -63 -48 -94 -63 -42 -22 -58 -36 -61 -55 -3 -14 -1 -28 4 -31
17 -11 111 31 154 69 24 21 44 35 44 30 0 -20 -69 -74 -130 -102 -36 -16 -77
-39 -92 -51 -15 -12 -32 -18 -38 -15 -6 3 -10 -4 -11 -17 0 -15 -5 -8 -14 21
-7 24 -25 55 -38 70 -13 14 -27 33 -30 42 -3 8 -27 24 -54 34 -26 10 -62 28
-79 41 -17 13 -35 20 -38 16 -4 -3 -4 2 0 12 5 12 4 17 -3 13 -13 -8 -24 52
-16 83 4 14 28 32 68 52 34 16 87 50 116 74 71 58 96 57 174 -2z m215 -116 c0
-14 -19 1 -31 25 -12 22 -12 22 10 3 11 -11 21 -23 21 -28z m-525 -148 c10
-11 16 -20 13 -20 -3 0 -13 9 -23 20 -10 11 -16 20 -13 20 3 0 13 -9 23 -20z
m-53 -190 c-6 -57 14 -96 64 -130 23 -17 45 -30 48 -30 3 0 -2 16 -9 35 -25
58 12 117 62 99 42 -15 47 -34 30 -95 -14 -48 -25 -61 -89 -114 -39 -33 -97
-76 -127 -97 l-55 -36 -28 21 c-20 17 -27 31 -27 59 -1 53 36 124 71 139 16 6
33 20 39 30 9 17 6 19 -24 19 -18 0 -38 -5 -45 -12 -22 -22 -26 2 -7 38 20 38
83 114 94 114 3 0 5 -18 3 -40z m584 8 c43 -46 74 -93 74 -112 0 -15 -2 -15
-23 -2 -25 17 -67 11 -67 -9 0 -7 16 -22 35 -34 39 -23 74 -87 75 -134 0 -38
-43 -81 -73 -71 -35 10 -87 44 -153 101 -34 28 -65 49 -68 45 -4 -3 -4 2 0 12
5 13 4 17 -4 12 -8 -5 -10 -2 -6 8 4 9 0 18 -9 22 -10 3 -19 24 -23 50 -7 50
13 84 49 84 48 0 70 -54 47 -114 -12 -33 -5 -32 41 0 47 32 72 83 67 135 -2
21 -1 39 2 39 3 0 20 -15 36 -32z m-719 -130 c-3 -8 -6 -5 -6 6 -1 11 2 17 5
13 3 -3 4 -12 1 -19z m452 -111 c36 -58 145 -153 216 -187 36 -17 65 -35 65
-40 0 -13 -27 -38 -49 -45 -30 -9 -120 -123 -131 -167 l-11 -40 -42 43 c-23
24 -45 43 -49 41 -4 -1 -4 6 -1 15 4 11 3 14 -5 9 -17 -11 -15 44 3 88 15 35
18 149 4 140 -4 -2 -5 4 -2 14 2 10 -5 26 -17 37 -22 20 -22 20 -46 -8 -13
-15 -28 -46 -34 -69 -10 -35 -8 -51 10 -108 17 -54 19 -72 11 -89 -7 -12 -16
-21 -21 -21 -4 0 -18 -16 -30 -35 -12 -19 -25 -35 -30 -35 -4 0 -25 23 -45 52
-51 70 -126 149 -136 143 -7 -5 -29 24 -29 38 0 2 30 19 68 37 92 46 212 165
238 237 l18 51 11 -32 c7 -19 22 -49 34 -69z m-52 -179 c-3 -7 -5 -2 -5 12 0
14 2 19 5 13 2 -7 2 -19 0 -25z m-371 -15 c-4 -4 -11 -1 -16 7 -16 25 -11 35
7 17 9 -9 13 -20 9 -24z m381 -55 c-2 -13 -4 -5 -4 17 -1 22 1 32 4 23 2 -10
2 -28 0 -40z m-294 -111 c47 -55 94 -116 106 -137 l21 -38 -37 0 c-21 0 -54
-1 -74 -3 -24 -2 -47 4 -65 16 -16 11 -33 18 -37 17 -5 -1 -6 2 -2 8 3 5 1 10
-6 10 -8 0 -9 16 -4 55 3 30 5 55 3 55 -3 0 -22 -9 -44 -19 -21 -11 -41 -18
-43 -16 -2 2 -1 19 3 38 6 34 71 120 87 115 5 -2 46 -47 92 -101z m716 68 c17
-20 31 -40 31 -45 0 -5 7 -16 16 -24 14 -15 14 -20 -2 -61 -17 -47 -34 -59
-34 -26 0 10 7 21 15 25 22 8 18 23 -9 41 -38 25 -56 10 -56 -49 0 -46 -3 -53
-33 -73 -50 -34 -79 -42 -125 -33 -23 4 -39 3 -36 -1 3 -5 -2 -6 -11 -3 -14 6
-13 11 8 46 26 44 187 238 198 238 4 0 21 -16 38 -35z m-910 -148 c1 -10 -3
-15 -9 -12 -5 3 -10 21 -9 38 0 27 2 29 9 12 5 -11 9 -28 9 -38z m614 -47 c8
0 7 -4 -1 -12 -9 -9 -16 -8 -30 6 -16 18 -16 19 1 12 10 -3 24 -6 30 -6z
m-338 -240 c3 -6 -1 -7 -9 -4 -18 7 -21 14 -7 14 6 0 13 -4 16 -10z"/>
<path d="M3068 4309 c-24 -13 -23 -51 2 -72 28 -24 26 -55 -4 -63 -38 -9 -43
-61 -12 -123 14 -27 30 -52 34 -55 5 -3 21 17 36 44 33 61 33 120 -2 135 -28
12 -29 46 -2 70 25 23 26 51 1 65 -24 12 -31 12 -53 -1z"/>
<path d="M3322 3559 l-24 -29 36 21 c43 25 54 39 29 38 -10 0 -29 -13 -41 -30z"/>
<path d="M3345 3501 c-44 -43 -89 -83 -100 -89 -15 -8 -17 -13 -8 -23 31 -31
202 125 191 175 -2 10 -29 -10 -83 -63z"/>
<path d="M2780 3596 c0 -2 7 -7 16 -10 8 -3 12 -2 9 4 -6 10 -25 14 -25 6z"/>
<path d="M2770 3525 c0 -13 107 -118 134 -132 65 -34 56 34 -15 103 -28 28
-39 33 -39 21 0 -21 1 -21 -44 -2 -20 8 -36 13 -36 10z"/>
<path d="M3086 3658 c-9 -35 -7 -76 4 -83 6 -4 10 15 10 49 0 60 -4 70 -14 34z"/>
<path d="M2173 3303 c-13 -8 -23 -24 -23 -34 0 -12 -7 -19 -20 -19 -13 0 -17
5 -14 14 3 8 -3 19 -15 25 -26 14 -34 14 -25 -1 5 -7 3 -8 -5 -4 -16 10 -51
-21 -51 -45 0 -19 25 -49 41 -49 5 0 17 9 26 20 10 11 29 20 44 20 14 0 34 -9
44 -20 22 -25 74 -26 118 -4 54 28 58 34 42 57 -37 53 -116 73 -162 40z"/>
<path d="M3893 3300 c-18 -11 -33 -27 -33 -35 0 -8 -5 -15 -11 -15 -19 0 2
-20 41 -40 51 -26 102 -26 125 0 23 25 50 25 82 0 28 -22 54 -15 73 20 9 16 6
25 -15 46 -31 31 -69 29 -73 -3 -2 -15 -10 -23 -23 -23 -11 0 -18 4 -15 9 4 5
-8 21 -25 35 -37 32 -81 34 -126 6z"/>
<path d="M2696 3381 c-4 -5 -2 -12 3 -15 5 -4 12 -2 15 3 4 5 2 12 -3 15 -5 4
-12 2 -15 -3z"/>
<path d="M2608 3193 c7 -3 16 -2 19 1 4 3 -2 6 -13 5 -11 0 -14 -3 -6 -6z"/>
<path d="M3350 3142 c14 -9 46 -37 73 -61 26 -24 47 -39 47 -33 0 13 -120 112
-135 111 -5 0 1 -8 15 -17z"/>
<path d="M3260 3029 c0 -16 112 -119 136 -125 54 -14 51 19 -9 91 -37 44 -65
60 -53 30 6 -16 -19 -22 -28 -6 -8 12 -46 21 -46 10z"/>
<path d="M2920 3116 c0 -2 9 -6 20 -9 11 -3 18 -1 14 4 -5 9 -34 13 -34 5z"/>
<path d="M2885 3100 c-3 -6 1 -7 9 -4 18 7 21 14 7 14 -6 0 -13 -4 -16 -10z"/>
<path d="M2870 3024 c-36 -36 -77 -73 -92 -82 -29 -17 -38 -42 -15 -42 40 0
141 90 176 157 28 54 6 44 -69 -33z"/>
<path d="M2781 3014 c-28 -32 -49 -59 -46 -62 3 -3 13 5 23 19 9 13 32 41 50
62 19 20 32 37 30 37 -3 0 -28 -25 -57 -56z"/>
<path d="M3073 2477 c-26 -28 -46 -89 -37 -113 4 -10 18 -32 31 -47 26 -32 32
-83 9 -74 -20 8 -39 -18 -31 -43 18 -58 99 -39 93 22 -2 17 -9 34 -17 36 -9 3
-11 0 -6 -8 5 -9 4 -11 -3 -6 -19 12 -14 50 10 76 37 39 29 148 -12 170 -13 7
-22 4 -37 -13z m14 -69 c-3 -8 -6 -5 -6 6 -1 11 2 17 5 13 3 -3 4 -12 1 -19z"/>
<path d="M3791 3680 c-50 -37 -67 -72 -51 -111 17 -41 53 -53 84 -28 31 25 33
50 6 74 -19 17 -19 19 -4 37 25 27 45 22 81 -19 l32 -38 1 27 c0 40 -9 57 -41
73 -41 22 -61 19 -108 -15z"/>
<path d="M683 3315 l-35 -35 -18 22 c-16 20 -21 21 -57 10 -21 -6 -52 -26 -68
-43 l-30 -31 35 -29 c47 -40 98 -49 121 -20 l17 21 35 -35 c31 -31 41 -35 84
-35 52 0 99 25 151 82 l23 25 -46 42 c-52 48 -81 61 -137 61 -32 0 -47 -7 -75
-35z m-103 -49 c0 -11 -19 -15 -25 -6 -3 5 1 10 9 10 9 0 16 -2 16 -4z m245
-12 l20 -15 -20 -12 c-31 -18 -83 -16 -101 4 -14 16 -14 18 3 28 26 15 75 13
98 -5z"/>
<path d="M5350 3334 c-34 -23 -100 -86 -100 -96 0 -4 27 -28 61 -53 53 -39 68
-45 111 -45 44 0 54 4 85 35 l35 35 17 -21 c23 -29 78 -19 122 22 l32 30 -24
25 c-29 31 -71 54 -98 54 -11 0 -29 -12 -40 -26 -14 -18 -21 -22 -21 -11 0 8
-14 27 -31 41 -37 31 -110 36 -149 10z m114 -77 c16 -12 17 -14 1 -27 -17 -14
-75 -20 -75 -7 0 4 -3 6 -7 6 -37 -6 -43 13 -10 29 31 15 70 14 91 -1z"/>
<path d="M3047 1040 c-79 -87 -81 -167 -8 -221 l31 -22 -23 -11 c-35 -18 -34
-64 3 -114 16 -23 37 -42 45 -42 20 0 64 60 71 100 6 27 3 36 -15 49 l-23 17
36 36 c30 30 36 43 36 77 0 51 -26 105 -73 149 l-34 33 -46 -51z m76 -128 c-1
-19 -7 -38 -15 -43 -17 -11 -31 -11 -24 0 3 5 -1 11 -9 15 -19 7 -19 39 1 78
l16 30 16 -23 c9 -13 15 -38 15 -57z"/>
<path d="M4058 5082 l-257 -307 0 -412 c-1 -236 3 -413 8 -413 5 0 11 166 13
378 3 274 7 383 16 399 15 27 142 190 172 220 12 12 75 86 141 165 130 157
207 280 172 277 -5 0 -124 -138 -265 -307z"/>
<path d="M1130 4985 c0 -8 7 -15 15 -15 13 0 15 -28 15 -190 0 -183 -1 -190
-20 -190 -11 0 -20 -7 -20 -15 0 -12 16 -15 80 -15 47 0 80 4 80 10 0 6 -8 10
-18 10 -20 0 -52 29 -52 48 0 6 7 9 15 6 13 -5 15 12 15 122 0 144 -8 213 -21
192 -7 -10 -9 -10 -9 0 0 7 -12 17 -26 22 -14 6 -22 14 -19 20 3 5 -3 10 -14
10 -12 0 -21 -7 -21 -15z"/>
<path d="M1320 4980 c0 -6 94 -10 263 -10 173 0 257 4 247 10 -21 13 -510 13
-510 0z"/>
<path d="M4000 4925 c0 -9 9 -15 25 -15 l25 0 0 -190 c0 -183 -1 -190 -20
-190 -11 0 -20 -4 -20 -10 0 -6 35 -10 85 -10 50 0 85 4 85 10 0 6 -6 10 -13
10 -8 0 -21 8 -30 18 -18 20 -23 37 -8 28 17 -11 21 26 21 180 l0 154 60 0 60
0 0 -190 c0 -162 -2 -190 -15 -190 -8 0 -15 -4 -15 -10 0 -6 35 -10 86 -10 54
0 83 4 79 10 -3 6 -12 10 -19 10 -20 0 -44 32 -28 37 9 4 12 47 12 174 0 162
1 169 20 169 11 0 20 5 20 11 0 6 -8 7 -22 2 -13 -4 -45 -7 -73 -5 -85 5 -158
4 -197 -3 -26 -5 -47 -2 -69 9 -40 20 -49 20 -49 1z"/>
<path d="M4490 4910 c0 -6 102 -10 288 -10 189 0 282 4 272 10 -21 13 -560 13
-560 0z"/>
<path d="M4384 4710 c0 -91 2 -128 3 -82 2 45 2 119 0 165 -1 45 -3 8 -3 -83z"/>
<path d="M1254 4725 c0 -71 1 -99 3 -62 2 37 2 96 0 130 -2 34 -3 4 -3 -68z"/>
<path d="M1357 4813 c-4 -3 -7 -51 -7 -105 0 -80 -3 -98 -15 -98 -8 0 -15 -4
-15 -8 0 -17 25 -32 52 -32 27 0 28 2 28 50 l0 50 55 0 55 0 0 -55 c0 -54 0
-55 30 -55 l30 0 0 103 c0 60 4 107 11 114 7 7 3 9 -15 6 -21 -4 -26 -2 -26
16 0 11 -4 21 -10 21 -14 0 -23 -44 -18 -85 4 -39 0 -42 -71 -47 -33 -2 -47 2
-55 15 -8 13 -8 20 0 25 7 4 14 16 16 27 2 11 10 19 16 18 7 -2 12 1 12 7 0 5
-14 7 -30 5 -27 -3 -30 -1 -25 16 6 18 -5 26 -18 12z"/>
<path d="M1721 4784 c-12 -15 -22 -38 -22 -53 -1 -17 -3 -20 -6 -8 -2 9 -9 15
-14 11 -6 -3 -3 11 5 33 l16 38 -25 -28 c-83 -93 -3 -236 120 -213 18 4 39 14
46 23 15 17 18 17 -66 -3 -27 -7 -49 6 -67 39 -7 14 -7 17 1 13 8 -5 11 13 11
59 0 37 5 75 10 86 14 25 48 24 76 -2 15 -14 29 -19 41 -14 15 5 13 9 -17 25
-50 27 -84 25 -109 -6z"/>
<path d="M4164 4675 c0 -71 1 -99 3 -62 2 37 2 96 0 130 -2 34 -3 4 -3 -68z"/>
<path d="M4492 4747 c-27 -28 -28 -49 -4 -70 27 -24 49 -21 59 9 l9 26 32 -36
c18 -20 32 -43 32 -50 0 -7 -16 -35 -37 -62 l-36 -49 33 30 c32 29 33 19 2
-17 -16 -19 -78 -26 -67 -8 10 16 -11 11 -26 -6 -11 -14 -10 -18 6 -30 44 -32
104 -11 130 45 10 23 23 40 29 38 6 -2 22 -23 35 -46 32 -57 63 -71 99 -44 15
11 29 28 31 38 3 16 -2 17 -47 11 -46 -6 -52 -4 -71 20 -32 40 -27 75 19 133
41 52 55 60 63 39 3 -10 10 -8 23 5 18 16 17 17 -25 17 -23 0 -52 -5 -64 -11
-22 -12 -22 -12 -3 10 25 27 3 28 -23 0 -21 -23 -36 -63 -19 -53 6 4 5 -3 -1
-15 -17 -30 -36 -26 -61 13 -22 36 -50 52 -85 47 -16 -2 -18 0 -7 10 6 7 12
17 12 21 0 15 -16 8 -38 -15z"/>
<path d="M4973 4735 c-12 -8 -25 -30 -29 -48 -4 -17 -9 -26 -11 -19 -3 6 -9
10 -14 6 -13 -8 -11 3 8 39 15 30 15 31 -1 18 -74 -62 -52 -189 38 -219 40
-13 108 -3 121 18 8 13 -9 13 -56 -2 -33 -9 -42 -9 -57 5 -16 15 -18 29 -14
100 3 59 8 85 20 95 22 17 39 15 62 -8 20 -20 41 -25 53 -13 7 6 -66 43 -87
43 -6 0 -21 -7 -33 -15z"/>
<path d="M1732 4650 c0 -19 2 -27 5 -17 2 9 2 25 0 35 -3 9 -5 1 -5 -18z"/>
<path d="M4547 4660 c-16 -19 -16 -20 1 -20 9 0 23 4 30 9 11 6 10 10 -1 19
-10 9 -17 7 -30 -8z"/>
<path d="M4715 4645 c-27 -26 -29 -33 -17 -52 5 -9 15 2 30 32 25 51 22 56
-13 20z"/>
<path d="M1420 4630 c0 -19 3 -21 12 -12 9 9 9 15 0 24 -9 9 -12 7 -12 -12z"/>
<path d="M1410 4572 c0 -7 -7 -12 -16 -12 -8 0 -12 -4 -9 -10 3 -5 10 -10 15
-10 10 0 22 31 15 38 -3 3 -5 0 -5 -6z"/>
<path d="M4750 4554 c0 -8 5 -12 10 -9 6 3 10 10 10 16 0 5 -4 9 -10 9 -5 0
-10 -7 -10 -16z"/>
<path d="M1205 4540 c3 -5 19 -10 36 -10 16 0 29 5 29 10 0 6 -16 10 -36 10
-21 0 -33 -4 -29 -10z"/>
<path d="M4625 4499 l-27 -54 38 35 c21 19 40 35 41 36 2 0 -3 9 -11 19 -13
18 -16 15 -41 -36z"/>
<path d="M4128 4477 c24 -7 36 -7 44 1 9 9 1 12 -32 11 l-45 -1 33 -11z"/>
<path d="M4320 4480 c20 -13 80 -13 80 0 0 6 -21 10 -47 10 -35 0 -44 -3 -33
-10z"/>
<path d="M4801 4470 c-13 -11 -31 -20 -40 -20 -14 -1 -13 -2 3 -11 25 -15 66
4 66 31 0 24 1 24 -29 0z"/>
<path d="M5331 3998 c-1 -193 3 -298 9 -298 12 0 13 482 1 550 -5 28 -9 -69
-10 -252z"/>
<path d="M5815 3059 c-143 -82 -311 -179 -372 -215 l-113 -67 1 -386 c1 -228
5 -368 10 -341 4 25 8 175 8 333 1 221 4 295 15 321 17 42 78 82 393 260 235
133 349 214 328 234 -6 5 -106 -46 -270 -139z"/>
<path d="M285 3095 c11 -9 112 -69 225 -133 113 -63 233 -133 268 -154 71 -43
96 -51 39 -12 -76 51 -566 327 -532 299z"/>
<path d="M1240 2265 c-173 -145 -316 -269 -318 -275 -2 -5 2 -10 9 -10 34 0
157 88 366 263 128 107 249 205 270 218 38 24 38 24 423 27 376 2 385 3 388
22 3 20 -2 20 -410 20 l-413 -1 -315 -264z"/>
<path d="M3800 2116 c0 -319 3 -416 13 -424 9 -8 12 61 12 341 0 194 4 369 8
390 6 28 15 41 35 49 36 15 702 24 767 10 l47 -10 -28 29 -28 29 -413 0 -413
0 0 -414z"/>
<path d="M4033 1973 c-7 -3 -13 -13 -13 -23 0 -23 47 -42 96 -38 l39 3 -52 19
c-29 11 -54 25 -55 31 -2 7 -9 10 -15 8z"/>
<path d="M1010 1950 c0 -26 29 -40 81 -40 49 0 43 11 -18 30 -23 7 -40 17 -37
21 3 5 -2 9 -10 9 -9 0 -16 -9 -16 -20z"/>
<path d="M4420 1950 c0 -26 29 -40 81 -40 49 0 43 11 -18 30 -23 7 -40 17 -37
21 3 5 -2 9 -10 9 -9 0 -16 -9 -16 -20z"/>
<path d="M5020 1878 c0 -35 -4 -68 -8 -74 -16 -24 -121 -27 -106 -3 3 5 -4 9
-15 9 -12 0 -21 -3 -21 -7 0 -9 82 -93 90 -93 4 0 5 14 2 30 -4 28 -2 30 27
30 l31 0 0 -127 c0 -93 3 -124 11 -113 9 13 10 13 6 0 -5 -16 -10 -16 -39 -5
-26 10 -24 -27 3 -51 19 -17 23 -17 47 -3 27 15 27 15 32 159 l5 145 60 5 c54
5 57 6 28 13 -17 5 -47 5 -65 2 -24 -5 -38 -2 -46 7 -12 16 -5 61 9 52 5 -3 9
10 8 28 0 18 -3 28 -5 21 -8 -18 -34 -4 -34 18 0 10 -4 19 -10 19 -6 0 -10
-28 -10 -62z"/>
<path d="M4570 1860 c0 -5 9 -10 20 -10 17 0 20 -7 20 -47 0 -27 3 -65 6 -85
6 -34 4 -38 -15 -38 -14 0 -21 -6 -21 -20 0 -11 6 -20 14 -20 8 0 17 -14 21
-30 4 -17 11 -28 16 -24 5 3 9 1 9 -5 0 -20 -51 -24 -87 -7 -43 21 -74 83 -66
135 8 47 9 48 31 21 19 -24 42 -21 42 5 0 10 -15 17 -42 22 -24 3 -37 8 -30
11 6 2 12 8 12 13 0 6 -8 5 -20 -1 -23 -12 -27 -69 -9 -135 14 -48 67 -103
108 -111 25 -5 30 -12 33 -38 2 -26 7 -31 28 -31 21 0 25 5 28 36 2 28 9 39
28 48 46 21 92 61 108 96 20 42 21 76 2 69 -9 -3 -17 3 -21 16 -9 29 -50 53
-93 55 -31 1 -37 5 -44 31 -9 37 -78 75 -78 44z m162 -117 c19 -17 25 -78 8
-88 -15 -9 -12 -27 3 -20 6 4 -6 -10 -27 -30 -41 -37 -59 -40 -64 -12 -4 18
20 47 37 47 6 0 11 5 11 10 0 6 -11 10 -24 10 -13 0 -30 7 -37 16 -11 14 -10
19 9 34 12 10 22 25 22 34 0 21 38 21 62 -1z"/>
<path d="M4680 1719 c0 -18 2 -19 15 -9 8 7 15 16 15 21 0 5 -7 9 -15 9 -9 0
-15 -9 -15 -21z"/>
<path d="M4680 1619 c0 -5 5 -7 10 -4 6 3 10 8 10 11 0 2 -4 4 -10 4 -5 0 -10
-5 -10 -11z"/>
<path d="M967 1853 c-12 -11 -8 -23 8 -23 23 0 22 -305 -1 -314 -29 -11 -3
-26 46 -26 49 0 75 15 45 26 -8 4 -20 16 -26 27 -10 17 -9 19 5 14 14 -6 16 9
16 133 l0 140 35 0 35 0 0 -154 c0 -110 -3 -155 -12 -158 -27 -9 7 -28 52 -28
56 0 71 12 35 28 -14 7 -25 19 -25 27 0 9 5 13 10 10 6 -4 10 43 10 134 0 127
2 141 18 142 11 0 12 2 4 6 -7 3 -19 0 -26 -6 -10 -8 -24 -7 -55 4 -36 12 -47
13 -74 1 -35 -14 -58 -11 -70 10 -9 15 -20 18 -30 7z"/>
<path d="M1074 1660 c0 -74 1 -105 3 -67 2 37 2 97 0 135 -2 37 -3 6 -3 -68z"/>
<path d="M1214 1660 c0 -74 1 -105 3 -67 2 37 2 97 0 135 -2 37 -3 6 -3 -68z"/>
<path d="M4114 1755 c-15 -23 -15 -32 -4 -87 l13 -61 -33 -27 c-43 -35 -24
-47 25 -15 l37 26 33 -21 c41 -25 71 -25 113 0 l33 21 31 -26 c16 -14 34 -22
40 -19 6 4 -2 16 -18 29 -31 25 -31 16 4 139 4 15 1 18 -11 13 -9 -3 -19 -2
-23 4 -3 6 -13 8 -21 5 -12 -5 -14 -1 -9 19 8 32 -9 32 -30 0 -14 -21 -15 -32
-5 -69 16 -66 14 -84 -14 -102 -28 -18 -64 -13 -89 11 -14 14 -13 21 4 66 21
53 19 72 -5 62 -8 -3 -15 0 -15 6 0 6 -7 11 -16 11 -11 0 -14 6 -9 20 9 28
-11 25 -31 -5z"/>
<path d="M5092 1653 c2 -99 2 -101 5 -28 3 56 9 85 21 98 14 16 14 19 2 27 -8
6 -18 10 -22 10 -5 0 -7 -48 -6 -107z"/>
<path d="M2020 1645 c0 -63 -4 -105 -10 -105 -15 0 -12 -26 4 -39 7 -6 21 -9
29 -5 13 4 16 27 19 110 3 99 0 110 -26 105 -5 -1 -6 7 -3 19 3 11 1 20 -4 20
-5 0 -9 -47 -9 -105z m27 -97 c-3 -7 -5 -2 -5 12 0 14 2 19 5 13 2 -7 2 -19 0
-25z"/>
<path d="M1597 1727 c-4 -10 -7 -56 -7 -102 0 -58 -4 -85 -12 -88 -21 -6 12
-38 36 -35 17 2 22 11 24 46 3 41 4 42 37 42 33 0 34 -1 37 -47 3 -41 6 -48
26 -51 22 -3 22 -1 22 96 0 71 4 102 13 105 6 3 -1 6 -16 6 -24 1 -27 4 -22
22 5 16 4 19 -5 14 -8 -5 -11 -26 -8 -61 l5 -54 -33 -6 c-47 -9 -69 -2 -72 24
-2 12 1 22 6 22 5 0 12 9 15 20 4 15 0 20 -13 20 -12 0 -20 9 -22 23 -3 20 -4
20 -11 4z m150 -109 c-3 -7 -5 -2 -5 12 0 14 2 19 5 13 2 -7 2 -19 0 -25z"/>
<path d="M1816 1725 c5 -11 10 -84 12 -162 3 -124 1 -143 -12 -143 -9 0 -16
-4 -16 -8 0 -14 40 -46 47 -38 4 4 8 43 10 88 1 44 4 82 6 85 3 2 14 -1 25 -8
25 -16 49 1 69 48 16 39 18 87 3 63 -8 -12 -10 -10 -10 10 0 14 -7 36 -16 49
-14 20 -22 22 -56 17 -27 -4 -46 -2 -56 6 -14 11 -15 10 -6 -7z m104 -92 c0
-48 -3 -55 -26 -65 -28 -13 -44 0 -44 37 0 22 20 81 34 104 16 25 36 -18 36
-76z"/>
<path d="M1380 1701 c-13 -25 -13 -72 1 -107 5 -16 7 -39 4 -52 -8 -31 -51
-26 -78 9 -16 23 -18 33 -9 70 5 24 13 53 18 63 6 16 4 18 -9 13 -10 -4 -17
-1 -18 6 0 7 -7 -6 -15 -28 -32 -85 10 -175 80 -175 19 0 38 5 41 10 4 7 13 6
27 -1 20 -11 57 -9 91 6 15 6 16 4 7 -20 -6 -15 -8 -31 -5 -35 11 -17 -37 -32
-79 -25 -22 3 -57 7 -78 8 -31 2 -34 4 -25 17 10 12 7 12 -13 -1 -29 -19 -51
-75 -40 -104 10 -27 40 -32 57 -9 18 24 16 35 -3 27 -16 -6 -34 11 -34 32 0
19 49 15 90 -6 47 -24 80 -20 115 15 32 32 52 99 37 129 -6 12 -10 40 -9 62 1
54 -9 91 -29 99 -13 5 -14 2 -8 -11 4 -10 10 -42 12 -71 6 -83 -33 -125 -83
-88 -18 13 -18 15 -2 49 19 39 23 92 7 82 -15 -9 -41 21 -34 39 9 23 -3 20
-16 -3z"/>
<path d="M4528 1693 c6 -2 18 -2 25 0 6 3 1 5 -13 5 -14 0 -19 -2 -12 -5z"/>
<path d="M4202 1653 c-6 -21 -8 -41 -3 -46 4 -4 8 -2 8 5 0 7 3 28 7 46 10 44
2 41 -12 -5z"/>
<path d="M4381 1649 c-7 -21 -8 -36 -2 -42 6 -6 12 4 17 27 8 48 0 56 -15 15z"/>
<path d="M4824 1654 c-14 -38 -74 -97 -114 -114 -25 -10 -30 -18 -30 -46 l0
-33 24 22 c13 12 41 34 63 48 44 29 76 86 71 127 l-3 27 -11 -31z"/>
<path d="M1977 1595 c-11 -43 -41 -75 -71 -75 -19 0 -26 -5 -26 -20 0 -24 0
-24 49 -4 43 17 66 60 59 106 -3 21 -5 20 -11 -7z"/>
<path d="M1770 1538 c-3 -37 -1 -63 3 -59 4 4 7 35 5 67 l-3 59 -5 -67z"/>
<path d="M1442 1570 c0 -14 2 -19 5 -12 2 6 2 18 0 25 -3 6 -5 1 -5 -13z"/>
<path d="M1648 1538 c-3 -39 -6 -43 -31 -46 -16 -2 -34 1 -40 7 -10 7 -17 -3
-30 -40 -28 -78 -94 -109 -161 -74 -36 19 -35 19 -29 -4 3 -12 11 -17 19 -14
8 3 32 -2 54 -11 62 -25 91 -8 133 76 20 38 26 43 57 43 31 0 35 3 38 27 2 14
9 32 17 38 16 13 9 40 -10 40 -9 0 -15 -15 -17 -42z"/>
<path d="M2072 1545 c0 -16 2 -22 5 -12 2 9 2 23 0 30 -3 6 -5 -1 -5 -18z"/>
<path d="M4177 1549 c7 -7 15 -10 18 -7 3 3 -2 9 -12 12 -14 6 -15 5 -6 -5z"/>
<path d="M1420 1481 c8 -5 26 -12 40 -15 l25 -7 -25 15 c-14 9 -32 15 -40 15
-13 0 -13 -1 0 -8z"/>
<path d="M1040 1476 c0 -9 30 -14 35 -6 4 6 -3 10 -14 10 -12 0 -21 -2 -21 -4z"/>
<path d="M1165 1470 c3 -5 19 -10 36 -10 16 0 29 5 29 10 0 6 -16 10 -36 10
-21 0 -33 -4 -29 -10z"/>
<path d="M5060 1459 c-22 -18 -22 -19 -3 -10 12 6 25 16 28 21 9 15 3 12 -25
-11z"/>
<path d="M1339 1323 c-13 -16 -12 -17 4 -4 9 7 17 15 17 17 0 8 -8 3 -21 -13z"/>
<path d="M1950 996 c0 -20 108 -29 387 -35 311 -6 312 -6 299 14 -13 19 -26
20 -350 23 -185 1 -336 0 -336 -2z"/>
<path d="M3524 952 c-71 -109 -415 -724 -409 -730 16 -16 102 105 216 307 170
299 226 389 257 409 23 15 68 18 362 24 326 6 390 11 390 29 0 5 -172 9 -392
9 l-393 0 -31 -48z"/>
</g>
</svg>
